<svg width="22" height="22" viewBox="0 0 22 22" fill="none" xmlns="http://www.w3.org/2000/svg">
<g clip-path="url(#clip0_425_37279)">
<path d="M3.87 3.87C7.808 -0.0679961 14.1917 -0.0679961 18.1297 3.87C22.0677 7.808 22.0677 14.1917 18.1297 18.1297C14.1917 22.0677 7.808 22.0677 3.87 18.1297C-0.0679961 14.1917 -0.0679961 7.808 3.87 3.87Z" fill="#ED5C23" fill-opacity="0.4"/>
<path d="M5.55556 14.6848H16.4459C16.5561 14.6845 16.6642 14.6561 16.7585 14.6026C16.8527 14.5491 16.9296 14.4726 16.9808 14.3813C17.032 14.29 17.0557 14.1874 17.0491 14.0845C17.0426 13.9816 17.0062 13.8823 16.9438 13.7973L11.4986 6.44352C11.273 6.13862 10.7297 6.13862 10.5034 6.44352L5.05824 13.7973C4.99521 13.8821 4.95825 13.9815 4.95137 14.0845C4.94449 14.1876 4.96796 14.2905 5.01922 14.382C5.07048 14.4735 5.14758 14.5501 5.24214 14.6035C5.3367 14.6569 5.4451 14.685 5.55556 14.6848Z" fill="white"/>
</g>
<defs>
<clipPath id="clip0_425_37279">
<rect width="22" height="22" fill="white"/>
</clipPath>
</defs>
</svg>
