<svg width="24" height="24" viewBox="0 0 24 24" fill="none" xmlns="http://www.w3.org/2000/svg">
<path d="M12.0011 19.0707C11.023 20.0489 9.84446 20.5379 8.4656 20.5379C7.08674 20.5379 5.90823 20.0489 4.93007 19.0707C3.9519 18.0925 3.46282 16.914 3.46282 15.5352C3.46282 14.1563 3.9519 12.9778 4.93007 11.9996L7.05139 9.8783C7.25173 9.67796 7.48743 9.57778 7.75849 9.57778C8.02955 9.57778 8.26525 9.67796 8.4656 9.8783C8.66595 10.0786 8.76612 10.3144 8.76612 10.5854C8.76612 10.8565 8.66595 11.0922 8.4656 11.2925L6.34428 13.4138C5.75502 14.0031 5.4604 14.7102 5.4604 15.5352C5.4604 16.3601 5.75502 17.0672 6.34428 17.6565C6.93353 18.2457 7.64064 18.5404 8.4656 18.5404C9.29056 18.5404 9.99766 18.2457 10.5869 17.6565L12.7082 15.5352C12.9086 15.3348 13.1443 15.2346 13.4153 15.2346C13.6864 15.2346 13.9221 15.3348 14.1225 15.5352C14.3228 15.7355 14.423 15.9712 14.423 16.2423C14.423 16.5133 14.3228 16.749 14.1225 16.9494L12.0011 19.0707ZM10.5869 14.828C10.3866 15.0284 10.1509 15.1286 9.87981 15.1286C9.60876 15.1286 9.37305 15.0284 9.17271 14.828C8.97236 14.6277 8.87219 14.392 8.87219 14.1209C8.87219 13.8499 8.97236 13.6142 9.17271 13.4138L13.4153 9.1712C13.6157 8.97085 13.8514 8.87067 14.1225 8.87067C14.3935 8.87067 14.6292 8.97085 14.8296 9.1712C15.0299 9.37154 15.1301 9.60724 15.1301 9.8783C15.1301 10.1494 15.0299 10.3851 14.8296 10.5854L10.5869 14.828ZM16.9509 14.1209C16.7505 14.3213 16.5148 14.4215 16.2438 14.4215C15.9727 14.4215 15.737 14.3213 15.5367 14.1209C15.3363 13.9206 15.2361 13.6849 15.2361 13.4138C15.2361 13.1428 15.3363 12.9071 15.5367 12.7067L17.658 10.5854C18.2472 9.99615 18.5419 9.28905 18.5419 8.46409C18.5419 7.63913 18.2472 6.93202 17.658 6.34277C17.0687 5.75351 16.3616 5.45888 15.5367 5.45888C14.7117 5.45888 14.0046 5.75351 13.4153 6.34277L11.294 8.46409C11.0937 8.66444 10.858 8.76461 10.5869 8.76461C10.3159 8.76461 10.0802 8.66444 9.87981 8.46409C9.67947 8.26374 9.57929 8.02804 9.57929 7.75698C9.57929 7.48592 9.67947 7.25022 9.87981 7.04987L12.0011 4.92855C12.9793 3.95039 14.1578 3.46131 15.5367 3.46131C16.9155 3.46131 18.094 3.95039 19.0722 4.92855C20.0504 5.90672 20.5394 7.08523 20.5394 8.46409C20.5394 9.84295 20.0504 11.0215 19.0722 11.9996L16.9509 14.1209Z" fill="#1F1F1F"/>
</svg>
