<?xml version="1.0" encoding="utf-8"?>
<!-- Generator: Adobe Illustrator 27.5.0, SVG Export Plug-In . SVG Version: 6.00 Build 0)  -->
<svg version="1.1" id="nownvote" xmlns="http://www.w3.org/2000/svg" xmlns:xlink="http://www.w3.org/1999/xlink" x="0px" y="0px"
	 viewBox="0 0 592 147.7" style="enable-background:new 0 0 592 147.7;" xml:space="preserve">
<style type="text/css">
	.st0{fill:#EB5D23;}
</style>
<g>
	<path class="st0" d="M453,72.6c0,5.2-0.7,9.9-2.1,14.2c-1.4,4.3-3.4,8-6.2,11.1c-2.8,3.1-6.3,5.5-10.5,7.2
		c-4.2,1.7-9.1,2.5-14.7,2.5c-5.4,0-10.2-0.8-14.2-2.3c-4-1.5-7.3-3.7-10-6.6c-2.6-2.9-4.6-6.4-5.9-10.6c-1.3-4.2-1.9-9-1.9-14.4
		c0-5.2,0.7-10,2.1-14.3c1.4-4.3,3.5-8,6.3-11.1c2.8-3.1,6.3-5.5,10.4-7.2c4.2-1.7,9.1-2.5,14.7-2.5c5.5,0,10.2,0.7,14.2,2.2
		c4,1.5,7.3,3.7,10,6.5c2.6,2.9,4.6,6.4,5.9,10.6C452.4,62.3,453,67.1,453,72.6 M435.3,73.2c0-3-0.2-5.8-0.7-8.3
		c-0.5-2.5-1.3-4.7-2.4-6.6c-1.1-1.9-2.7-3.3-4.6-4.4c-1.9-1-4.3-1.6-7.1-1.6c-2.6,0-4.8,0.5-6.7,1.4c-1.9,0.9-3.5,2.3-4.7,4.1
		c-1.2,1.8-2.2,4-2.8,6.5c-0.6,2.5-0.9,5.4-0.9,8.7c0,3,0.2,5.8,0.8,8.3c0.5,2.5,1.3,4.7,2.4,6.6c1.1,1.9,2.6,3.3,4.5,4.3
		c1.9,1,4.3,1.5,7.1,1.5c2.6,0,4.9-0.5,6.8-1.4c1.9-0.9,3.5-2.3,4.7-4.1c1.2-1.8,2.1-3.9,2.7-6.5C435,79.4,435.3,76.5,435.3,73.2"/>
	<path class="st0" d="M583.9,44.9c-2.4-2.8-5.6-5-9.4-6.6c-3.8-1.6-8.4-2.4-13.7-2.4c-5,0-9.6,0.8-13.6,2.5c-4,1.7-7.5,4.1-10.3,7.3
		c-2.8,3.2-5,7.1-6.4,11.6c-1.5,4.5-2.2,9.7-2.2,15.3c0,5.9,0.7,11.1,2.1,15.5c1.4,4.4,3.6,8.1,6.4,11c2.9,2.9,6.5,5.1,10.7,6.5
		c4.2,1.4,9.2,2.1,14.9,2.1c3.1,0,6.1-0.2,8.8-0.6c2.7-0.4,5.2-0.9,7.3-1.4c2.1-0.5,3.9-1.1,5.3-1.7c1.4-0.6,2.3-1,2.6-1.4
		c0.3-0.3,0.6-0.7,0.8-1.1c0.2-0.4,0.3-0.9,0.4-1.4c0.1-0.5,0.2-1.2,0.2-1.9c0-0.8,0.1-1.7,0.1-2.7c0-1.2,0-2.2-0.1-3
		c-0.1-0.8-0.2-1.4-0.4-1.9c-0.2-0.5-0.5-0.8-0.8-1c-0.3-0.2-0.7-0.3-1.2-0.3c-0.7,0-1.7,0.2-2.9,0.7c-1.1,0.4-2.6,0.9-4.3,1.5
		c-1.7,0.5-3.8,1-6.1,1.5c-2.3,0.4-5.1,0.7-8.2,0.7c-3,0-5.7-0.4-7.8-1.2c-2.2-0.8-3.9-1.9-5.3-3.4c-1.4-1.5-2.4-3.3-3-5.5
		c-0.6-2.1-0.9-4.4-0.9-7h38.2c1.8,0,3.2-0.6,4.2-1.6c1-1.1,1.5-2.8,1.5-5v-2.8c0-4.4-0.6-8.6-1.7-12.4
		C588.1,51,586.3,47.7,583.9,44.9 M550.5,53.8c1.1-1.4,2.5-2.5,4.1-3.4c1.6-0.8,3.6-1.2,5.8-1.2c4.4,0,7.7,1.4,9.8,4.2
		c2.1,2.8,3.1,6.6,3,11.4H547c0.1-2.1,0.4-4.1,1-5.9C548.6,56.9,549.4,55.2,550.5,53.8"/>
	<path class="st0" d="M519.4,91.1c-0.2-0.4-0.5-0.8-0.8-0.9c-0.3-0.2-0.7-0.3-1.2-0.3c-0.7,0-1.7,0.2-2.8,0.6
		c-1.1,0.4-2.5,0.9-4.2,1.4c-1.6,0.5-3.5,0.9-5.7,1.3c-0.6,0-1.2,0.1-1.8,0.1c-8.1,0-9.7-4.3-9.7-11.2V59.8H510
		c1.2,0,2.2-0.9,2.2-2.1V46.8c0-1.1-1-2.1-2.2-2.1h-16.9V28.2c0-1.1-1-2.1-2.2-2.1h-14.5c-1.2,0-2.2,0.9-2.2,2.1v16.6h-9.7
		c-1.2,0-2.2,0.9-2.2,2.1v10.9c0,1.1,1,2.1,2.2,2.1h9.7v25.3c0,8.4,1.8,14.2,5.6,17.7c3.3,3.1,9,5,15.1,5l0.3,0
		c5.2,0,9.8-0.5,12.7-1.3l0.1-0.1c0.9-0.2,1.7-0.3,2.5-0.5c2.1-0.5,3.8-1,5.2-1.6c1.4-0.6,2.2-1,2.6-1.3c0.3-0.3,0.6-0.7,0.8-1
		c0.2-0.4,0.3-0.8,0.4-1.3c0.1-0.5,0.2-1,0.2-1.8c0-0.7,0.1-1.5,0.1-2.5c0-1.1,0-2.9-0.1-3.6C519.7,92.1,519.6,91.6,519.4,91.1"/>
	<path class="st0" d="M382.4,43.7c0,0.2,0,0.5,0,0.8c0,0.3-0.1,0.7-0.1,1.1c-0.1,0.4-0.2,0.8-0.3,1.3c-0.1,0.5-0.3,1.1-0.4,1.7
		l-18.2,54.7c-0.2,0.8-0.5,1.4-0.9,1.9c-0.4,0.5-1,0.8-1.9,1.1c-0.9,0.3-2.1,0.5-3.6,0.5c-1.5,0.1-3.5,0.1-5.9,0.1
		c-2.4,0-4.3-0.1-5.9-0.2c-1.5-0.1-2.7-0.3-3.6-0.6c-0.9-0.3-1.5-0.6-1.9-1.1c-0.4-0.5-0.7-1.1-0.9-1.8l-18.2-54.7
		c-0.3-0.9-0.5-1.7-0.6-2.4c-0.2-0.7-0.2-1.2-0.3-1.6c0-0.3,0-0.6,0-0.9c0-0.5,0.1-0.8,0.4-1.2c0.2-0.3,0.7-0.6,1.3-0.8
		c0.6-0.2,1.5-0.4,2.6-0.5c1.1-0.1,2.5-0.1,4.2-0.1c1.8,0,3.3,0.1,4.5,0.2c1.1,0.1,2,0.3,2.7,0.5c0.7,0.2,1.1,0.5,1.4,0.9
		c0.3,0.4,0.5,0.8,0.7,1.4l13.8,44.4l0.4,1.7l0.4-1.7l13.6-44.4c0.1-0.5,0.3-1,0.6-1.4c0.3-0.4,0.8-0.7,1.4-0.9
		c0.6-0.2,1.5-0.4,2.5-0.5c1.1-0.1,2.4-0.2,4.2-0.2c1.7,0,3,0,4.1,0.1c1.1,0.1,1.9,0.2,2.5,0.5c0.6,0.2,1,0.5,1.2,0.8
		C382.3,42.8,382.4,43.2,382.4,43.7"/>
	<path class="st0" d="M59.2,104.9c0,0.5-0.1,0.9-0.4,1.2c-0.3,0.3-0.7,0.6-1.4,0.9c-0.6,0.2-1.5,0.4-2.6,0.5
		c-1.1,0.1-2.5,0.2-4.1,0.2c-1.7,0-3.1-0.1-4.2-0.2c-1.1-0.1-2-0.3-2.6-0.5c-0.6-0.2-1.1-0.5-1.4-0.9c-0.3-0.3-0.4-0.7-0.4-1.2V70.1
		c0-3-0.2-5.3-0.7-7c-0.4-1.7-1.1-3.1-1.9-4.3c-0.8-1.2-1.9-2.1-3.2-2.8c-1.3-0.7-2.8-1-4.6-1c-2.2,0-4.4,0.8-6.6,2.4
		c-2.2,1.6-4.6,3.9-7,7v40.6c0,0.5-0.1,0.9-0.4,1.2c-0.3,0.3-0.7,0.6-1.4,0.9c-0.7,0.2-1.5,0.4-2.6,0.5c-1.1,0.1-2.5,0.2-4.2,0.2
		c-1.7,0-3.1-0.1-4.2-0.2c-1.1-0.1-2-0.3-2.6-0.5c-0.7-0.2-1.1-0.5-1.4-0.9c-0.3-0.3-0.4-0.7-0.4-1.2v-61c0-0.5,0.1-0.9,0.3-1.2
		c0.2-0.3,0.6-0.6,1.2-0.9c0.6-0.2,1.4-0.4,2.3-0.5c0.9-0.1,2.1-0.2,3.5-0.2c1.5,0,2.7,0.1,3.6,0.2c1,0.1,1.7,0.3,2.2,0.5
		c0.5,0.2,0.9,0.5,1.1,0.9c0.2,0.3,0.3,0.7,0.3,1.2v7c3.4-3.6,6.8-6.4,10.3-8.2C29.4,40.9,33,40,36.8,40c4.1,0,7.7,0.7,10.5,2.1
		c2.9,1.4,5.2,3.2,6.9,5.6c1.8,2.3,3,5.1,3.8,8.2c0.8,3.1,1.2,6.9,1.2,11.4V104.9z"/>
	<path class="st0" d="M136,73.7c0,5.2-0.7,9.9-2,14.2c-1.4,4.3-3.4,7.9-6.2,11c-2.8,3.1-6.2,5.5-10.4,7.1c-4.2,1.7-9,2.5-14.6,2.5
		c-5.4,0-10.1-0.7-14.1-2.2c-4-1.5-7.3-3.7-9.9-6.5c-2.6-2.9-4.6-6.4-5.8-10.5C71.6,85.1,71,80.3,71,75c0-5.2,0.7-9.9,2.1-14.2
		c1.4-4.3,3.5-8,6.2-11c2.8-3.1,6.2-5.4,10.4-7.1c4.1-1.7,9-2.5,14.6-2.5c5.4,0,10.2,0.7,14.1,2.2c4,1.5,7.3,3.6,9.9,6.5
		c2.6,2.9,4.5,6.4,5.8,10.5C135.4,63.6,136,68.4,136,73.7 M118.4,74.4c0-3-0.2-5.7-0.7-8.3c-0.5-2.5-1.3-4.7-2.4-6.6
		c-1.1-1.9-2.6-3.3-4.5-4.4c-1.9-1-4.3-1.6-7.1-1.6c-2.5,0-4.8,0.5-6.7,1.4c-1.9,0.9-3.5,2.3-4.7,4.1c-1.2,1.8-2.1,3.9-2.8,6.5
		c-0.6,2.5-0.9,5.4-0.9,8.6c0,3,0.2,5.7,0.7,8.3c0.5,2.5,1.3,4.7,2.4,6.6c1.1,1.9,2.6,3.3,4.5,4.3c1.9,1,4.3,1.5,7.1,1.5
		c2.6,0,4.8-0.5,6.7-1.4c1.9-0.9,3.5-2.3,4.7-4c1.2-1.8,2.1-3.9,2.7-6.4C118.1,80.5,118.4,77.6,118.4,74.4"/>
	<path class="st0" d="M240.7,43.9c0,0.5-0.1,1.1-0.2,1.8c-0.1,0.7-0.4,1.8-0.7,3.1l-16.2,54.9c-0.2,0.8-0.5,1.4-0.9,1.9
		c-0.4,0.5-0.9,0.8-1.7,1.1c-0.7,0.3-1.8,0.5-3.2,0.5c-1.4,0.1-3.2,0.1-5.4,0.1c-2.2,0-4-0.1-5.4-0.2c-1.4-0.1-2.5-0.3-3.3-0.6
		c-0.8-0.3-1.4-0.6-1.7-1.1c-0.4-0.5-0.6-1.1-0.8-1.8L191,66.9l-0.1-0.6l-0.1,0.6l-9.4,36.9c-0.2,0.8-0.4,1.4-0.8,1.9
		c-0.3,0.5-0.9,0.8-1.7,1.1c-0.8,0.3-1.9,0.5-3.3,0.5c-1.4,0.1-3.2,0.1-5.4,0.1c-2.3,0-4.1-0.1-5.5-0.2c-1.4-0.1-2.5-0.3-3.3-0.6
		c-0.8-0.3-1.4-0.6-1.7-1.1c-0.4-0.5-0.6-1.1-0.8-1.8l-16-54.9c-0.4-1.3-0.7-2.3-0.8-3.1c-0.1-0.7-0.2-1.4-0.2-1.9
		c0-0.5,0.1-0.9,0.4-1.2c0.2-0.3,0.7-0.6,1.4-0.8c0.7-0.2,1.5-0.4,2.7-0.4c1.1-0.1,2.5-0.1,4.2-0.1c1.8,0,3.3,0,4.4,0.1
		c1.1,0.1,2,0.3,2.7,0.5c0.6,0.2,1.1,0.5,1.3,0.9c0.3,0.4,0.4,0.9,0.6,1.4l12,44.6l0.1,0.8l0.1-0.8l11.3-44.6c0.1-0.5,0.4-1,0.6-1.4
		c0.3-0.4,0.7-0.7,1.3-0.9c0.6-0.2,1.4-0.4,2.5-0.5c1.1-0.1,2.4-0.1,4.1-0.1c1.7,0,3,0.1,4.1,0.2c1,0.1,1.9,0.3,2.5,0.5
		c0.6,0.2,1,0.5,1.3,0.8c0.2,0.3,0.4,0.7,0.6,1.2L212,88.8l0.2,0.7l0.1-0.8l11.6-44.6c0.1-0.5,0.3-1,0.5-1.4
		c0.3-0.4,0.7-0.7,1.4-0.9c0.6-0.2,1.5-0.4,2.6-0.5c1.1-0.1,2.5-0.1,4.1-0.1c1.7,0,3,0,4.1,0.1c1.1,0.1,1.9,0.2,2.5,0.4
		c0.6,0.2,1,0.5,1.3,0.8C240.6,43,240.7,43.4,240.7,43.9"/>
	<path class="st0" d="M308.2,76.8c0,0.5-0.1,0.8-0.4,1.2c-0.3,0.3-0.7,0.6-1.4,0.8c-0.6,0.2-1.5,0.4-2.6,0.5
		c-1.1,0.1-2.5,0.2-4.1,0.2c-1.7,0-3.1-0.1-4.2-0.2c-1.1-0.1-2-0.3-2.6-0.5c-0.6-0.2-1.1-0.5-1.4-0.8c-0.3-0.3-0.4-0.7-0.4-1.2V42.2
		c0-2.9-0.2-5.3-0.6-6.9c-0.4-1.7-1-3.1-1.9-4.3c-0.8-1.2-1.9-2.1-3.2-2.8c-1.3-0.7-2.8-1-4.5-1c-2.2,0-4.4,0.8-6.6,2.4
		c-2.2,1.6-4.5,3.9-6.9,6.9v40.3c0,0.5-0.1,0.8-0.4,1.2c-0.3,0.3-0.7,0.6-1.4,0.8c-0.7,0.2-1.5,0.4-2.6,0.5
		c-1.1,0.1-2.5,0.2-4.1,0.2c-1.7,0-3.1-0.1-4.2-0.2c-1.1-0.1-2-0.3-2.6-0.5c-0.7-0.2-1.1-0.5-1.4-0.8c-0.3-0.3-0.4-0.7-0.4-1.2V16.2
		c0-0.5,0.1-0.8,0.3-1.2c0.2-0.3,0.6-0.6,1.2-0.8c0.6-0.2,1.3-0.4,2.3-0.5c0.9-0.1,2.1-0.2,3.5-0.2c1.5,0,2.7,0.1,3.6,0.2
		c1,0.1,1.7,0.3,2.2,0.5c0.5,0.2,0.9,0.5,1.1,0.8c0.2,0.3,0.3,0.7,0.3,1.2v7c3.4-3.6,6.8-6.3,10.2-8.2c3.5-1.8,7.1-2.7,10.9-2.7
		c4.1,0,7.6,0.7,10.4,2c2.8,1.4,5.1,3.2,6.9,5.5c1.7,2.3,3,5.1,3.8,8.2c0.8,3.1,1.2,6.9,1.2,11.3V76.8z"/>
</g>
</svg>
