<svg width="18" height="18" viewBox="0 0 18 18" fill="none" xmlns="http://www.w3.org/2000/svg">
<path d="M13.4766 11.1436C13.9206 11.2655 14.3551 11.4196 14.7383 11.6055C15.6043 12.0256 16 12.496 16 12.9375V13.75H14V12.9375C14 12.2477 13.8011 11.6533 13.4766 11.1436ZM11.5 13.25V13.75H2V13.25H11.5ZM6.75 10.8125C7.56518 10.8125 8.8149 11.02 9.84766 11.4336C10.3634 11.6402 10.7935 11.8862 11.0869 12.1572C11.3769 12.4251 11.5 12.684 11.5 12.9375V13.0078L10.5293 12.3389C10.1516 12.0781 9.55535 11.8251 8.90234 11.6377C8.24193 11.4482 7.47851 11.3125 6.75 11.3125C6.02149 11.3125 5.25807 11.4482 4.59766 11.6377C3.94465 11.8251 3.34838 12.0781 2.9707 12.3389L2 13.0078V12.9375C2 12.684 2.12306 12.4251 2.41309 12.1572C2.70652 11.8862 3.13663 11.6402 3.65234 11.4336C4.6851 11.02 5.93482 10.8125 6.75 10.8125ZM6.75 4.25C7.92136 4.25 8.875 5.20364 8.875 6.375C8.875 7.54636 7.92136 8.5 6.75 8.5C5.57864 8.5 4.625 7.54636 4.625 6.375C4.625 5.20364 5.57864 4.25 6.75 4.25ZM11.25 4.25C12.4214 4.25 13.375 5.20364 13.375 6.375C13.375 7.54636 12.4214 8.5 11.25 8.5C11.1212 8.5 10.9965 8.48347 10.874 8.45996C11.1937 7.8331 11.375 7.1235 11.375 6.375C11.375 5.62619 11.1939 4.91611 10.874 4.28906C10.9965 4.26558 11.1213 4.25 11.25 4.25ZM6.75 4.75C5.85136 4.75 5.125 5.47636 5.125 6.375C5.125 7.27364 5.85136 8 6.75 8C7.64864 8 8.375 7.27364 8.375 6.375C8.375 5.47636 7.64864 4.75 6.75 4.75Z" fill="#909090" stroke="#2D2D2D"/>
</svg>
